<svg width="76" height="67" viewBox="0 0 76 67" fill="none" xmlns="http://www.w3.org/2000/svg">
<path d="M4.48 38.984L4.816 36.744C5.56267 31.8533 7.31733 27.504 10.08 23.696C12.8427 19.8507 16.5947 16.2853 21.336 13L22.512 14.568C18.7787 17.5173 15.8853 20.8773 13.832 24.648C11.816 28.4187 10.416 32.6 9.632 37.192L9.24 39.32C8.792 42.0827 8.60533 44.864 8.68 47.664C8.792 50.4267 9.25867 53.0587 10.08 55.56C10.9013 58.0987 12.152 60.3573 13.832 62.336L12.432 63.568C10.1547 61.2533 8.36267 58.7147 7.056 55.952C5.74933 53.1893 4.89067 50.352 4.48 47.44C4.06933 44.528 4.06933 41.7093 4.48 38.984ZM72.219 37.64L71.883 39.88C71.1737 44.7333 69.419 49.064 66.619 52.872C63.819 56.68 60.067 60.2453 55.363 63.568L54.243 62C57.939 59.0507 60.795 55.7093 62.811 51.976C64.8643 48.2053 66.283 44.0053 67.067 39.376L67.459 37.304C67.9443 34.5413 68.131 31.76 68.019 28.96C67.907 26.16 67.4403 23.5093 66.619 21.008C65.835 18.4693 64.5843 16.2107 62.867 14.232L64.267 13C66.5443 15.3147 68.3363 17.8533 69.643 20.616C70.9497 23.3787 71.8083 26.216 72.219 29.128C72.6297 32.04 72.6297 34.8773 72.219 37.64Z" fill="black"/>
<path d="M33.88 30L40 36.4343L46.12 30L48 31.9809L40 40.41L32 31.9809L33.88 30Z" fill="black"/>
</svg>
