<svg width="239" height="134" viewBox="0 0 239 134" fill="none" xmlns="http://www.w3.org/2000/svg">
<path d="M234.499 50.2775C237.493 60.2458 235.184 71.2935 229.002 82.1446C222.748 93.1216 212.677 103.609 200.892 111.984C189.11 120.358 175.783 126.5 163.14 128.944C150.48 131.391 138.814 130.083 129.937 124.022C119.078 116.609 105.453 111.786 91.385 107.949C84.3316 106.025 77.1027 104.334 69.9974 102.693C69.3357 102.54 68.6752 102.388 68.016 102.236C61.5778 100.752 55.2666 99.2963 49.2252 97.7208C35.8386 94.2297 24.1832 90.2423 15.8984 84.3917C7.79351 78.6681 3 71.2406 3 60.5C3 49.1504 5.82218 40.0811 11.1634 32.7807C16.5247 25.4528 24.6009 19.6664 35.5078 15.2165C57.4396 6.26868 90.1059 3 132.745 3C154.052 3 169.498 3.5948 181.105 5.07738C192.706 6.55918 200.255 8.90401 205.895 12.2646C211.493 15.6008 215.463 20.0871 219.667 26.3515C221.782 29.5018 223.921 33.0468 226.364 37.1019L226.443 37.2334C228.798 41.1419 231.416 45.4881 234.499 50.2775Z" stroke="#CC826A" stroke-width="6"/>
</svg>
