<svg width="66" height="82" viewBox="0 0 66 82" fill="none" xmlns="http://www.w3.org/2000/svg">
<path d="M27.1479 57.656V59H17.8839V57.656L20.5239 57.32C20.8759 57.256 21.1319 57.192 21.2919 57.128C21.4519 57.032 21.5959 56.824 21.7239 56.504C21.8519 56.184 22.0279 55.672 22.2519 54.968L31.4199 26.36H35.5479L44.7639 54.968C44.9879 55.672 45.1639 56.184 45.2919 56.504C45.4199 56.824 45.5639 57.032 45.7239 57.128C45.9159 57.192 46.1719 57.256 46.4919 57.32L49.1319 57.656V59H35.8839V57.656L38.5239 57.32C39.0359 57.256 39.3079 57.128 39.3399 56.936C39.4039 56.712 39.2599 56.056 38.9079 54.968L37.0839 49.016H25.9959L24.1239 54.968C23.8039 56.056 23.6599 56.712 23.6919 56.936C23.7239 57.128 23.9959 57.256 24.5079 57.32L27.1479 57.656ZM26.5719 47.336H36.5559L31.6119 31.4L26.5719 47.336Z" fill="#CC826A"/>
<path d="M51.1646 16.4492C45.7155 12.8566 39.3235 10.9605 32.7969 11.0006C26.2702 11.0408 19.902 13.0154 14.4976 16.6749C9.09324 20.3343 4.89535 25.5141 2.43482 31.5593C-0.0257073 37.6046 -0.638364 44.2437 0.674326 50.6371C1.98702 57.0305 5.16609 62.8911 9.80955 67.4777C14.453 72.0643 20.3523 75.171 26.7614 76.4049C33.1704 77.6388 39.8015 76.9445 45.816 74.4097C51.8304 71.875 56.9582 67.6136 60.5508 62.1646L56.0738 59.2128C53.065 63.7764 48.7705 67.3453 43.7334 69.4681C38.6963 71.591 33.1428 72.1725 27.7751 71.1391C22.4075 70.1058 17.4669 67.5039 13.578 63.6626C9.68909 59.8213 7.02661 54.913 5.92723 49.5586C4.82786 44.2041 5.34096 38.6438 7.40165 33.5809C9.46234 28.5181 12.9781 24.18 17.5043 21.1152C22.0305 18.0504 27.3638 16.3967 32.8299 16.363C38.296 16.3294 43.6493 17.9174 48.2128 20.9262L51.1646 16.4492Z" fill="#CC826A"/>
</svg>
